# xmcd
#
# Track frame offsets: 
#        150
#        12937
#        24596
#        36332
#        46111
#        55282
#        67690
#        78995
#        90743
#        101408
#        119342
#        130532
#        142795
#        156432
#        166258
#        177320
#        187258
#        196097
#        209010
#        223169
#
# Disc length: 3103 seconds
#
# Revision: 0
# Processed by: cddbd v1.5.2PL0 Copyright (c) Steve Scherf et al.
# Submitted via: ExactAudioCopy v0.99pb5
#
DISCID=120c1d14
DTITLE=Various Artist - Country and Western Hits And Rarities CD08
DYEAR=1900
DGENRE=
TTITLE0=George 'Thumper' Jones - White Lightnin'
TTITLE1=Rusty and Doug - Louisiana Man
TTITLE2=Johnny Horton - The Battle Of Bull Run
TTITLE3=Don Gibson - I'm Movin' On
TTITLE4=Johnny Cahs - I Got Stripes
TTITLE5=Louvin Brothers - Cash On The Barrelhead
TTITLE6=Buck Owens - Excuse Me
TTITLE7=Bobby Bare - More Than A Poor Boy Could Give
TTITLE8=Ferlin Husky - Wings Of A Dove
TTITLE9=Marty Robbins - Big Iron
TTITLE10=Charlie Walker - Pick Me Up On Your Way Down
TTITLE11=Jim Reeves - Drinking Tequila
TTITLE12=Stuart Hamblen - This Ole House
TTITLE13=Don Gibson - Far Far Away
TTITLE14=Carl Perkins - Dixie Fried
TTITLE15=Mac Wiseman - Jimmy Brown The Newsboy
TTITLE16=Johnny Cash - Katy Too
TTITLE17=Hank Snow - I'm Moving On
TTITLE18=Johnny Horton - Comanche The Brave Horse
TTITLE19=Marvin Rainwater - Baby Don't Go
EXTD=
EXTT0=
EXTT1=
EXTT2=
EXTT3=
EXTT4=
EXTT5=
EXTT6=
EXTT7=
EXTT8=
EXTT9=
EXTT10=
EXTT11=
EXTT12=
EXTT13=
EXTT14=
EXTT15=
EXTT16=
EXTT17=
EXTT18=
EXTT19=
PLAYORDER=
